<svg xmlns="http://www.w3.org/2000/svg" xmlns:xlink="http://www.w3.org/1999/xlink" version="1.1" x="0px" y="0px" viewBox="0 0 100 100" enable-background="new 0 0 100 100" xml:space="preserve"><g><g><path fill="#000000" d="M85.6,25.1c0.1,0.2,0.2,0.4,0.2,0.6C85.8,25.4,85.7,25.2,85.6,25.1z"/><path fill="#000000" d="M85.9,25.6c0-0.2-0.1-0.4-0.2-0.6c-0.1-0.1-0.1-0.2-0.2-0.2L66.1,5.5C65.8,5.2,65.4,5,64.9,5H15.7    c-0.9,0-1.6,0.7-1.6,1.6v86.8c0,0.9,0.7,1.6,1.6,1.6h68.6c0.9,0,1.6-0.7,1.6-1.6V25.9C85.9,25.8,85.9,25.7,85.9,25.6z M66.5,10.4    l13.9,13.9H66.5V10.4z M82.7,91.8H17.3V8.2h46v17.8c0,0.9,0.7,1.6,1.6,1.6h17.8V91.8z"/></g></g><g><g><path fill="#000000" d="M66.4,37.7H33.6c-0.9,0-1.6,0.7-1.6,1.6v27.5c0,0.9,0.7,1.6,1.6,1.6h32.9c0.9,0,1.6-0.7,1.6-1.6V39.3    C68,38.4,67.3,37.7,66.4,37.7z M35.1,40.9h29.7v13.2l-6.7-6.7c-0.6-0.6-1.7-0.6-2.3,0L45.5,57.8l-3.1-3.1c-0.6-0.6-1.7-0.6-2.3,0    l-5,5V40.9z M64.9,65.2H35.1v-1l6.2-6.2l3.1,3.1c0.6,0.6,1.7,0.6,2.3,0L57,50.8l7.8,7.8V65.2z"/></g><g><path fill="#000000" d="M43.2,52.7c-2.6,0-4.7-2.1-4.7-4.7s2.1-4.7,4.7-4.7s4.7,2.1,4.7,4.7S45.8,52.7,43.2,52.7z M43.2,46.5    c-0.8,0-1.5,0.7-1.5,1.5c0,0.8,0.7,1.5,1.5,1.5c0.8,0,1.5-0.7,1.5-1.5C44.7,47.2,44,46.5,43.2,46.5z"/></g></g><head/></svg>