<?xml version="1.0" encoding="utf-8"?>
<!-- Generator: Adobe Illustrator 18.1.1, SVG Export Plug-In . SVG Version: 6.00 Build 0)  -->
<!DOCTYPE svg PUBLIC "-//W3C//DTD SVG 1.1//EN" "http://www.w3.org/Graphics/SVG/1.1/DTD/svg11.dtd">
<svg version="1.1" id="Layer_1" xmlns="http://www.w3.org/2000/svg" xmlns:xlink="http://www.w3.org/1999/xlink" x="0px" y="0px"
	 width="419px" height="194px" viewBox="-270 184 419 194" enable-background="new -270 184 419 194" xml:space="preserve">
<path fill="none" stroke="#000000" stroke-width="2" stroke-miterlimit="10" d="M-112.8,285.8h-61.4c-0.6,0-1-0.4-1-1v-14.1
	c0-0.6,0.4-1,1-1h61.4c0.6,0,1,0.4,1,1v14.1C-111.8,285.4-112.2,285.8-112.8,285.8z"/>
<g>
	<g>
		<polyline fill="none" stroke="#CCCCCC" stroke-width="3" stroke-linecap="round" stroke-linejoin="round" points="37.6,236.3 
			37.6,233.8 40.1,233.8 		"/>
		
			<line fill="none" stroke="#CCCCCC" stroke-width="3" stroke-linecap="round" stroke-linejoin="round" stroke-dasharray="5,7" x1="47.1" y1="233.8" x2="79.1" y2="233.8"/>
		<polyline fill="none" stroke="#CCCCCC" stroke-width="3" stroke-linecap="round" stroke-linejoin="round" points="82.1,233.8 
			85.1,233.8 86.6,235.6 		"/>
		
			<polyline fill="none" stroke="#CCCCCC" stroke-width="3" stroke-linecap="round" stroke-linejoin="round" stroke-dasharray="4.8007,6.721" points="
			91.6,240.6 100.6,249.6 100.6,291.3 		"/>
		<polyline fill="none" stroke="#CCCCCC" stroke-width="3" stroke-linecap="round" stroke-linejoin="round" points="100.6,294.3 
			100.6,296.8 98.1,296.8 		"/>
		
			<line fill="none" stroke="#CCCCCC" stroke-width="3" stroke-linecap="round" stroke-linejoin="round" stroke-dasharray="5,7" x1="91.1" y1="296.8" x2="44.1" y2="296.8"/>
		<polyline fill="none" stroke="#CCCCCC" stroke-width="3" stroke-linecap="round" stroke-linejoin="round" points="40.1,296.8 
			37.6,296.8 37.6,294.3 		"/>
		
			<line fill="none" stroke="#CCCCCC" stroke-width="3" stroke-linecap="round" stroke-linejoin="round" stroke-dasharray="5,7" x1="37.6" y1="287.3" x2="37.6" y2="240.3"/>
	</g>
</g>
<polygon fill="#FFFFFF" points="6.1,226.3 54.1,226.3 69.1,241.6 69.1,289.3 6.1,289.3 "/>
<path d="M-188.6,231.2c1.6,0,2.9,1.3,2.9,2.8c0,1.6-1.3,2.8-2.9,2.8s-2.9-1.3-2.9-2.8C-191.4,232.4-190.1,231.2-188.6,231.2z
	 M-199.1,234c0-1.6,1.3-2.8,2.9-2.8c1.6,0,2.9,1.3,2.9,2.8c0,1.6-1.3,2.8-2.9,2.8S-199.1,235.5-199.1,234z M-90.8,292.3v24h-107.8
	v-73.8h107.8v23.2h7.6v-34c0-4.2-3.5-7.7-7.7-7.7h-107.7c-4.2,0-7.7,3.5-7.7,7.7v84.6c0,4.2,3.5,7.7,7.7,7.7h107.7
	c4.2,0,7.7-3.5,7.7-7.7v-24H-90.8z M-90.8,236.3h-92.4v-4.6h92.4V236.3z"/>
<g>
	<g>
		<g>
			<path d="M71.1,241.5c0.1,0.2,0.2,0.3,0.2,0.5C71.3,241.7,71.2,241.6,71.1,241.5z"/>
			<path d="M71.3,241.9c0-0.2-0.1-0.3-0.2-0.5c-0.1-0.1-0.1-0.2-0.2-0.2l-16.4-16.3c-0.3-0.3-0.6-0.4-1-0.4H7.1
				c-0.8,0-1.3,0.6-1.3,1.3V289c0,0.8,0.6,1.3,1.3,1.3h62.8c0.8,0,1.3-0.6,1.3-1.3v-46.9C71.3,242.1,71.3,242,71.3,241.9z M55,229.1
				l11.7,11.7H55V229.1z M68.6,287.7H8.5v-60.5h43.8v15c0,0.8,0.6,1.3,1.3,1.3h15V287.7L68.6,287.7z"/>
		</g>
	</g>
	<g>
		<g>
			<path d="M42.5,233.6H14.8c-0.8,0-1.3,0.6-1.3,1.3v23.2c0,0.8,0.6,1.3,1.3,1.3h27.7c0.8,0,1.3-0.6,1.3-1.3V235
				C43.8,234.2,43.2,233.6,42.5,233.6z M16.1,236.3h25v11.1l-5.6-5.6c-0.5-0.5-1.4-0.5-1.9,0l-8.7,8.8l-2.6-2.6
				c-0.5-0.5-1.4-0.5-1.9,0l-4.2,4.2L16.1,236.3L16.1,236.3z M41.2,256.8H16.1V256l5.2-5.2l2.6,2.6c0.5,0.5,1.4,0.5,1.9,0l8.7-8.7
				l6.6,6.6L41.2,256.8L41.2,256.8z"/>
		</g>
		<g>
			<path d="M22.9,246.3c-2.2,0-4-1.8-4-4s1.8-4,4-4s4,1.8,4,4S25.1,246.3,22.9,246.3z M22.9,241c-0.7,0-1.3,0.6-1.3,1.3
				s0.6,1.3,1.3,1.3c0.7,0,1.3-0.6,1.3-1.3S23.6,241,22.9,241z"/>
		</g>
	</g>
	<head></head>
</g>
<g enable-background="new    ">
	<path d="M-0.7,315.3v10.3c0,1-0.3,1.8-0.9,2.4c-0.6,0.6-1.6,1.1-3,1.5l-1.2-2.3c0.8-0.3,1.3-0.6,1.6-0.9c0.3-0.3,0.4-0.8,0.4-1.3
		v-9.7H-0.7z M-4,312.2c0-0.5,0.2-0.9,0.5-1.2s0.7-0.5,1.2-0.5c0.5,0,0.9,0.2,1.2,0.5s0.5,0.7,0.5,1.2c0,0.5-0.2,0.9-0.5,1.2
		s-0.7,0.5-1.2,0.5c-0.5,0-0.9-0.2-1.2-0.5S-4,312.7-4,312.2z"/>
	<path d="M2,315.3h1.6l0.6,0.8c0.5-0.4,1-0.7,1.6-0.9c0.6-0.2,1.2-0.3,1.7-0.3c1.6,0,2.7,0.5,3.5,1.5s1.2,2.3,1.2,3.8
		c0,1.5-0.4,2.8-1.2,3.9c-0.8,1-2,1.6-3.6,1.6c-0.3,0-0.7-0.1-1.2-0.2c-0.4-0.1-0.8-0.3-1.2-0.4v4.8L2,330.1V315.3z M9.1,320.3
		c0-0.7-0.2-1.4-0.5-2s-1-0.9-1.8-0.9c-0.3,0-0.6,0-0.8,0.1s-0.5,0.2-0.8,0.4v4.5c0.3,0.2,0.5,0.3,0.8,0.4c0.3,0.1,0.6,0.2,0.9,0.2
		c0.8,0,1.4-0.3,1.7-0.9S9.1,321,9.1,320.3z"/>
	<path d="M24.2,315.3v10.2c0,1.3-0.4,2.4-1.3,3.2c-0.9,0.8-2.2,1.2-4,1.2c-0.4,0-1.1-0.1-1.9-0.3c-0.8-0.2-1.5-0.5-2.1-0.9l0.9-2.2
		c0.6,0.3,1.2,0.5,1.6,0.7s0.9,0.2,1.4,0.2c0.8,0,1.3-0.2,1.7-0.5c0.4-0.3,0.6-0.8,0.6-1.4v-0.5c-0.4,0.2-0.8,0.4-1.3,0.5
		c-0.4,0.1-0.9,0.2-1.3,0.2c-1.5,0-2.7-0.5-3.5-1.5c-0.8-1-1.2-2.3-1.2-3.8c0-1.5,0.4-2.8,1.2-3.9s2-1.6,3.6-1.6
		c0.5,0,1.1,0.1,1.7,0.3c0.6,0.2,1.1,0.5,1.6,0.9l0.7-0.8H24.2z M17,320.4c0,0.7,0.2,1.4,0.5,2c0.3,0.6,0.9,0.9,1.8,0.9
		c0.3,0,0.6-0.1,0.9-0.2c0.3-0.1,0.6-0.3,0.9-0.4v-4.3c-0.3-0.2-0.6-0.4-0.9-0.5c-0.3-0.1-0.7-0.2-0.9-0.2c-0.8,0-1.4,0.3-1.8,0.9
		C17.2,319.1,17,319.7,17,320.4z"/>
	<path d="M36.7,315c1.7,0,3,0.5,4,1.5c1,1,1.5,2.3,1.5,4c0,1.7-0.5,2.9-1.6,3.9c-1.1,0.9-2.4,1.4-4.1,1.4c-1.6,0-2.9-0.5-3.9-1.4
		c-1-0.9-1.4-2.3-1.4-3.9c0-1.7,0.5-3,1.5-3.9S35.1,315,36.7,315z M36.6,323.1c0.7,0,1.3-0.2,1.7-0.6c0.4-0.4,0.7-1.1,0.7-2
		c0-0.9-0.2-1.6-0.6-2.1c-0.4-0.5-0.9-0.8-1.7-0.8s-1.3,0.2-1.7,0.7s-0.6,1.1-0.6,2.1c0,0.9,0.2,1.6,0.5,2.1
		C35.4,322.9,35.9,323.1,36.6,323.1z"/>
	<path d="M50,315.3l0.6,2.5c-0.5,0-1,0.1-1.6,0.3c-0.6,0.2-1.1,0.6-1.7,1v6.3h-3.1v-10.2h1.6l0.9,1.3c0.4-0.3,0.9-0.7,1.5-0.9
		S49.5,315.3,50,315.3z"/>
	<path d="M57,315.3h1.6l0.6,0.8c0.5-0.4,1-0.7,1.6-0.9c0.6-0.2,1.2-0.3,1.7-0.3c1.6,0,2.7,0.5,3.5,1.5s1.2,2.3,1.2,3.8
		c0,1.5-0.4,2.8-1.2,3.9c-0.8,1-2,1.6-3.6,1.6c-0.3,0-0.7-0.1-1.2-0.2c-0.4-0.1-0.8-0.3-1.2-0.4v4.8l-3.1,0.2V315.3z M64.1,320.3
		c0-0.7-0.2-1.4-0.5-2s-1-0.9-1.8-0.9c-0.3,0-0.6,0-0.8,0.1s-0.5,0.2-0.8,0.4v4.5c0.3,0.2,0.5,0.3,0.8,0.4c0.3,0.1,0.6,0.2,0.9,0.2
		c0.8,0,1.4-0.3,1.7-0.9S64.1,321,64.1,320.3z"/>
	<path d="M75.5,314.9c1.4,0,2.4,0.4,3,1.2c0.6,0.8,0.9,1.8,0.9,3v6.4h-3.1v-6.2c0-0.6-0.1-1-0.4-1.3s-0.7-0.5-1.2-0.5
		c-0.3,0-0.7,0.1-1.1,0.3c-0.4,0.2-0.8,0.4-1.1,0.6v7.1h-3.1v-10.2h1.6l0.8,1c0.4-0.4,1-0.7,1.7-1C74.2,315.1,74.8,314.9,75.5,314.9
		z"/>
	<path d="M91.7,315.3v10.2c0,1.3-0.4,2.4-1.3,3.2c-0.9,0.8-2.2,1.2-4,1.2c-0.4,0-1.1-0.1-1.9-0.3c-0.8-0.2-1.5-0.5-2.1-0.9l0.9-2.2
		c0.6,0.3,1.2,0.5,1.6,0.7s0.9,0.2,1.4,0.2c0.8,0,1.3-0.2,1.7-0.5c0.4-0.3,0.6-0.8,0.6-1.4v-0.5c-0.4,0.2-0.8,0.4-1.3,0.5
		c-0.4,0.1-0.9,0.2-1.3,0.2c-1.5,0-2.7-0.5-3.5-1.5c-0.8-1-1.2-2.3-1.2-3.8c0-1.5,0.4-2.8,1.2-3.9s2-1.6,3.6-1.6
		c0.5,0,1.1,0.1,1.7,0.3c0.6,0.2,1.1,0.5,1.6,0.9l0.7-0.8H91.7z M84.5,320.4c0,0.7,0.2,1.4,0.5,2c0.3,0.6,0.9,0.9,1.8,0.9
		c0.3,0,0.6-0.1,0.9-0.2c0.3-0.1,0.6-0.3,0.9-0.4v-4.3c-0.3-0.2-0.6-0.4-0.9-0.5c-0.3-0.1-0.7-0.2-0.9-0.2c-0.8,0-1.4,0.3-1.8,0.9
		C84.7,319.1,84.5,319.7,84.5,320.4z"/>
</g>
<g>
	<path d="M52.2,307c-0.3,0-0.6-0.1-0.9-0.2c-0.7-0.2-1.3-0.8-1.6-1.4c-0.9-1.8-1.8-3.7-2.6-5.5c-0.4-0.8-0.7-1.5-1.1-2.3l-3.1,2.9
		c-0.5,0.5-1.2,0.8-2,0.8c-0.4,0-0.7-0.1-1.1-0.2c-1-0.4-1.7-1.4-1.7-2.5L37.9,288c-0.1-5.1-0.2-10.5-0.3-15.9c0-0.8,0.3-1.5,0.8-2
		s1.2-0.8,2-0.8c0.7,0,1.3,0.2,1.8,0.6l20.4,16.9c0.8,0.7,1.2,1.9,0.9,2.9c-0.3,1.1-1.2,1.9-2.3,2l-4.2,0.6l3.7,7.8
		c0.3,0.7,0.4,1.4,0.1,2.1c-0.2,0.7-0.8,1.3-1.4,1.6l-6,2.9C53,306.9,52.6,307,52.2,307L52.2,307z"/>
	<path fill="#FFFFFF" d="M40.4,271.4c0.2,0,0.4,0.1,0.5,0.2c6,5,13.3,11,20.4,16.9c0.2,0.2,0.3,0.5,0.3,0.8
		c-0.1,0.3-0.4,0.5-0.7,0.6c-2.3,0.3-4.6,0.6-7,0.9c1.6,3.4,3.3,6.8,4.9,10.3c0.1,0.2,0.1,0.4,0,0.6s-0.2,0.4-0.4,0.5
		c-2,0.9-3.8,1.8-6,2.9c-0.1,0.1-0.2,0.1-0.4,0.1c-0.1,0-0.2,0-0.3,0c-0.2-0.1-0.4-0.2-0.5-0.4c-1.6-3.4-3.3-6.8-4.9-10.3
		c-1.5,1.4-3.3,3.2-5.1,4.9c-0.1,0.1-0.4,0.2-0.6,0.2c-0.1,0-0.2,0-0.3-0.1c-0.3-0.1-0.5-0.4-0.5-0.7c-0.1-7.9-0.3-17.3-0.5-26.5
		c0-0.2,0.1-0.4,0.2-0.6C40,271.5,40.2,271.4,40.4,271.4L40.4,271.4 M40.4,267.4L40.4,267.4L40.4,267.4c-1.3,0-2.5,0.5-3.4,1.4
		c-0.9,0.9-1.4,2.2-1.4,3.5c0.1,5.4,0.2,11,0.3,16.2c0.1,3.6,0.1,7,0.2,10.2c0,1.9,1.2,3.6,3,4.3c0.6,0.2,1.2,0.4,1.8,0.4
		c1.3,0,2.4-0.5,3.3-1.3l1.1-1c0.8,1.8,1.7,3.5,2.5,5.3c0.5,1.1,1.5,2,2.7,2.4c0.5,0.2,1,0.3,1.6,0.3c0.7,0,1.4-0.2,2.1-0.5
		c1.4-0.7,2.6-1.3,3.9-1.9l2.1-1c1.1-0.5,2-1.5,2.5-2.7c0.4-1.2,0.3-2.5-0.2-3.7l-2.1-4.4L60,294l1.5-0.2c1.9-0.2,3.5-1.6,4-3.4
		s-0.1-3.8-1.5-5l-7-5.8c-4.7-3.9-9.3-7.7-13.3-11C42.6,267.8,41.6,267.4,40.4,267.4L40.4,267.4z"/>
</g>
<head></head>
<g>
	<polygon points="-123.7,278.3 -98.9,254.1 -98.9,268.8 -13.6,268.8 -13.6,287.8 -98.9,287.8 -98.9,302.6 	"/>
	<path fill="#FFFFFF" d="M-101,258.8v12h85.3v15H-101v12l-19.9-19.5L-101,258.8 M-97,249.3l-6.8,6.7l-19.9,19.5l-2.9,2.9l2.9,2.9
		l19.9,19.5l6.8,6.7V298v-8h81.3h4v-4v-15v-4h-4H-97v-8V249.3L-97,249.3z"/>
</g>
</svg>
