<svg xmlns="http://www.w3.org/2000/svg" width="419" height="194" viewBox="-270 184 419 194" enable-background="new -270 184 419 194"><path fill="none" stroke="#000" stroke-width="2" stroke-miterlimit="10" d="M-112.8 285.8h-61.4c-.6 0-1-.4-1-1v-14.1c0-.6.4-1 1-1h61.4c.6 0 1 .4 1 1v14.1c0 .6-.4 1-1 1z"/><g fill="none" stroke="#ccc" stroke-width="3" stroke-linecap="round" stroke-linejoin="round"><path d="M37.6 236.3v-2.5h2.5"/><path stroke-dasharray="5,7" d="M47.1 233.8h32"/><path d="M82.1 233.8h3l1.5 1.8"/><path stroke-dasharray="4.8007,6.721" d="M91.6 240.6l9 9v41.7"/><path d="M100.6 294.3v2.5h-2.5"/><path stroke-dasharray="5,7" d="M91.1 296.8h-47"/><path d="M40.1 296.8h-2.5v-2.5"/><path stroke-dasharray="5,7" d="M37.6 287.3v-47"/></g><path fill="#fff" d="M6.1 226.3h48l15 15.3v47.7h-63z"/><path d="M-188.6 231.2c1.6 0 2.9 1.3 2.9 2.8 0 1.6-1.3 2.8-2.9 2.8s-2.9-1.3-2.9-2.8c.1-1.6 1.4-2.8 2.9-2.8zm-10.5 2.8c0-1.6 1.3-2.8 2.9-2.8 1.6 0 2.9 1.3 2.9 2.8 0 1.6-1.3 2.8-2.9 2.8s-2.9-1.3-2.9-2.8zm108.3 58.3v24h-107.8v-73.8h107.8v23.2h7.6v-34c0-4.2-3.5-7.7-7.7-7.7h-107.7c-4.2 0-7.7 3.5-7.7 7.7v84.6c0 4.2 3.5 7.7 7.7 7.7h107.7c4.2 0 7.7-3.5 7.7-7.7v-24h-7.6zm0-56h-92.4v-4.6h92.4v4.6zM71.1 241.5c.1.2.2.3.2.5 0-.3-.1-.4-.2-.5zM71.3 241.9c0-.2-.1-.3-.2-.5-.1-.1-.1-.2-.2-.2l-16.4-16.3c-.3-.3-.6-.4-1-.4H7.1c-.8 0-1.3.6-1.3 1.3V289c0 .8.6 1.3 1.3 1.3h62.8c.8 0 1.3-.6 1.3-1.3v-46.9c.1 0 .1-.1.1-.2zM55 229.1l11.7 11.7H55v-11.7zm13.6 58.6H8.5v-60.5h43.8v15c0 .8.6 1.3 1.3 1.3h15v44.2zM42.5 233.6H14.8c-.8 0-1.3.6-1.3 1.3v23.2c0 .8.6 1.3 1.3 1.3h27.7c.8 0 1.3-.6 1.3-1.3V235c0-.8-.6-1.4-1.3-1.4zm-26.4 2.7h25v11.1l-5.6-5.6c-.5-.5-1.4-.5-1.9 0l-8.7 8.8-2.6-2.6c-.5-.5-1.4-.5-1.9 0l-4.2 4.2-.1-15.9zm25.1 20.5H16.1v-.8l5.2-5.2 2.6 2.6c.5.5 1.4.5 1.9 0l8.7-8.7 6.6 6.6.1 5.5zM22.9 246.3c-2.2 0-4-1.8-4-4s1.8-4 4-4 4 1.8 4 4-1.8 4-4 4zm0-5.3c-.7 0-1.3.6-1.3 1.3s.6 1.3 1.3 1.3c.7 0 1.3-.6 1.3-1.3s-.6-1.3-1.3-1.3z"/><g enable-background="new"><path d="M-.7 315.3v10.3c0 1-.3 1.8-.9 2.4-.6.6-1.6 1.1-3 1.5l-1.2-2.3c.8-.3 1.3-.6 1.6-.9.3-.3.4-.8.4-1.3v-9.7h3.1zm-3.3-3.1c0-.5.2-.9.5-1.2s.7-.5 1.2-.5.9.2 1.2.5.5.7.5 1.2-.2.9-.5 1.2-.7.5-1.2.5-.9-.2-1.2-.5-.5-.7-.5-1.2zM2 315.3h1.6l.6.8c.5-.4 1-.7 1.6-.9.6-.2 1.2-.3 1.7-.3 1.6 0 2.7.5 3.5 1.5s1.2 2.3 1.2 3.8-.4 2.8-1.2 3.9c-.8 1-2 1.6-3.6 1.6-.3 0-.7-.1-1.2-.2-.4-.1-.8-.3-1.2-.4v4.8l-3 .2v-14.8zm7.1 5c0-.7-.2-1.4-.5-2s-1-.9-1.8-.9c-.3 0-.6 0-.8.1s-.5.2-.8.4v4.5c.3.2.5.3.8.4.3.1.6.2.9.2.8 0 1.4-.3 1.7-.9s.5-1.1.5-1.8zM24.2 315.3v10.2c0 1.3-.4 2.4-1.3 3.2-.9.8-2.2 1.2-4 1.2-.4 0-1.1-.1-1.9-.3-.8-.2-1.5-.5-2.1-.9l.9-2.2c.6.3 1.2.5 1.6.7s.9.2 1.4.2c.8 0 1.3-.2 1.7-.5.4-.3.6-.8.6-1.4v-.5c-.4.2-.8.4-1.3.5-.4.1-.9.2-1.3.2-1.5 0-2.7-.5-3.5-1.5-.8-1-1.2-2.3-1.2-3.8s.4-2.8 1.2-3.9 2-1.6 3.6-1.6c.5 0 1.1.1 1.7.3.6.2 1.1.5 1.6.9l.7-.8h1.6zm-7.2 5.1c0 .7.2 1.4.5 2 .3.6.9.9 1.8.9.3 0 .6-.1.9-.2.3-.1.6-.3.9-.4v-4.3c-.3-.2-.6-.4-.9-.5-.3-.1-.7-.2-.9-.2-.8 0-1.4.3-1.8.9-.3.5-.5 1.1-.5 1.8zM36.7 315c1.7 0 3 .5 4 1.5s1.5 2.3 1.5 4c0 1.7-.5 2.9-1.6 3.9-1.1.9-2.4 1.4-4.1 1.4-1.6 0-2.9-.5-3.9-1.4-1-.9-1.4-2.3-1.4-3.9 0-1.7.5-3 1.5-3.9s2.4-1.6 4-1.6zm-.1 8.1c.7 0 1.3-.2 1.7-.6.4-.4.7-1.1.7-2 0-.9-.2-1.6-.6-2.1-.4-.5-.9-.8-1.7-.8s-1.3.2-1.7.7-.6 1.1-.6 2.1c0 .9.2 1.6.5 2.1.5.4 1 .6 1.7.6zM50 315.3l.6 2.5c-.5 0-1 .1-1.6.3-.6.2-1.1.6-1.7 1v6.3h-3.1v-10.2h1.6l.9 1.3c.4-.3.9-.7 1.5-.9s1.3-.3 1.8-.3zM57 315.3h1.6l.6.8c.5-.4 1-.7 1.6-.9.6-.2 1.2-.3 1.7-.3 1.6 0 2.7.5 3.5 1.5s1.2 2.3 1.2 3.8-.4 2.8-1.2 3.9c-.8 1-2 1.6-3.6 1.6-.3 0-.7-.1-1.2-.2-.4-.1-.8-.3-1.2-.4v4.8l-3.1.2v-14.8zm7.1 5c0-.7-.2-1.4-.5-2s-1-.9-1.8-.9c-.3 0-.6 0-.8.1s-.5.2-.8.4v4.5c.3.2.5.3.8.4.3.1.6.2.9.2.8 0 1.4-.3 1.7-.9s.5-1.1.5-1.8zM75.5 314.9c1.4 0 2.4.4 3 1.2.6.8.9 1.8.9 3v6.4h-3.1v-6.2c0-.6-.1-1-.4-1.3s-.7-.5-1.2-.5c-.3 0-.7.1-1.1.3-.4.2-.8.4-1.1.6v7.1h-3.1v-10.2H71l.8 1c.4-.4 1-.7 1.7-1 .7-.2 1.3-.4 2-.4zM91.7 315.3v10.2c0 1.3-.4 2.4-1.3 3.2-.9.8-2.2 1.2-4 1.2-.4 0-1.1-.1-1.9-.3-.8-.2-1.5-.5-2.1-.9l.9-2.2c.6.3 1.2.5 1.6.7s.9.2 1.4.2c.8 0 1.3-.2 1.7-.5.4-.3.6-.8.6-1.4v-.5c-.4.2-.8.4-1.3.5-.4.1-.9.2-1.3.2-1.5 0-2.7-.5-3.5-1.5-.8-1-1.2-2.3-1.2-3.8s.4-2.8 1.2-3.9 2-1.6 3.6-1.6c.5 0 1.1.1 1.7.3.6.2 1.1.5 1.6.9l.7-.8h1.6zm-7.2 5.1c0 .7.2 1.4.5 2 .3.6.9.9 1.8.9.3 0 .6-.1.9-.2.3-.1.6-.3.9-.4v-4.3c-.3-.2-.6-.4-.9-.5-.3-.1-.7-.2-.9-.2-.8 0-1.4.3-1.8.9-.3.5-.5 1.1-.5 1.8z"/></g><path d="M52.2 307c-.3 0-.6-.1-.9-.2-.7-.2-1.3-.8-1.6-1.4-.9-1.8-1.8-3.7-2.6-5.5-.4-.8-.7-1.5-1.1-2.3l-3.1 2.9c-.5.5-1.2.8-2 .8-.4 0-.7-.1-1.1-.2-1-.4-1.7-1.4-1.7-2.5l-.2-10.6c-.1-5.1-.2-10.5-.3-15.9 0-.8.3-1.5.8-2s1.2-.8 2-.8c.7 0 1.3.2 1.8.6l20.4 16.9c.8.7 1.2 1.9.9 2.9-.3 1.1-1.2 1.9-2.3 2l-4.2.6 3.7 7.8c.3.7.4 1.4.1 2.1-.2.7-.8 1.3-1.4 1.6l-6 2.9c-.4.2-.8.3-1.2.3z"/><path fill="#fff" d="M40.4 271.4c.2 0 .4.1.5.2 6 5 13.3 11 20.4 16.9.2.2.3.5.3.8-.1.3-.4.5-.7.6-2.3.3-4.6.6-7 .9 1.6 3.4 3.3 6.8 4.9 10.3.1.2.1.4 0 .6s-.2.4-.4.5c-2 .9-3.8 1.8-6 2.9-.1.1-.2.1-.4.1h-.3c-.2-.1-.4-.2-.5-.4-1.6-3.4-3.3-6.8-4.9-10.3-1.5 1.4-3.3 3.2-5.1 4.9-.1.1-.4.2-.6.2-.1 0-.2 0-.3-.1-.3-.1-.5-.4-.5-.7-.1-7.9-.3-17.3-.5-26.5 0-.2.1-.4.2-.6.5-.2.7-.3.9-.3m0-4c-1.3 0-2.5.5-3.4 1.4-.9.9-1.4 2.2-1.4 3.5.1 5.4.2 11 .3 16.2.1 3.6.1 7 .2 10.2 0 1.9 1.2 3.6 3 4.3.6.2 1.2.4 1.8.4 1.3 0 2.4-.5 3.3-1.3l1.1-1c.8 1.8 1.7 3.5 2.5 5.3.5 1.1 1.5 2 2.7 2.4.5.2 1 .3 1.6.3.7 0 1.4-.2 2.1-.5 1.4-.7 2.6-1.3 3.9-1.9l2.1-1c1.1-.5 2-1.5 2.5-2.7.4-1.2.3-2.5-.2-3.7l-2.1-4.4-.4-.9 1.5-.2c1.9-.2 3.5-1.6 4-3.4s-.1-3.8-1.5-5l-7-5.8c-4.7-3.9-9.3-7.7-13.3-11-1.1-.8-2.1-1.2-3.3-1.2z"/><path d="M-123.7 278.3l24.8-24.2v14.7h85.3v19h-85.3v14.8z"/><path fill="#fff" d="M-101 258.8v12h85.3v15H-101v12l-19.9-19.5 19.9-19.5m4-9.5l-6.8 6.7-19.9 19.5-2.9 2.9 2.9 2.9 19.9 19.5 6.8 6.7V290h85.3v-23H-97v-17.7z"/></svg>