<?xml version="1.0" encoding="utf-8"?>
<!-- Generator: Adobe Illustrator 18.1.1, SVG Export Plug-In . SVG Version: 6.00 Build 0)  -->
<!DOCTYPE svg PUBLIC "-//W3C//DTD SVG 1.1//EN" "http://www.w3.org/Graphics/SVG/1.1/DTD/svg11.dtd">
<svg version="1.1" id="Layer_1" xmlns="http://www.w3.org/2000/svg" xmlns:xlink="http://www.w3.org/1999/xlink" x="0px" y="0px"
	 width="419px" height="194px" viewBox="-270 184 419 194" enable-background="new -270 184 419 194" xml:space="preserve">
<path fill="none" stroke="#000000" stroke-width="2" stroke-miterlimit="10" d="M-120.4,285.8h-61.4c-0.6,0-1-0.4-1-1v-14.1
	c0-0.6,0.4-1,1-1h61.4c0.6,0,1,0.4,1,1v14.1C-119.4,285.4-119.8,285.8-120.4,285.8z"/>
<g>
	<g>
		<polyline fill="none" stroke="#CCCCCC" stroke-width="3" stroke-linecap="round" stroke-linejoin="round" points="30,236.3 
			30,233.8 32.5,233.8 		"/>
		
			<line fill="none" stroke="#CCCCCC" stroke-width="3" stroke-linecap="round" stroke-linejoin="round" stroke-dasharray="5,7" x1="39.5" y1="233.8" x2="71.5" y2="233.8"/>
		<polyline fill="none" stroke="#CCCCCC" stroke-width="3" stroke-linecap="round" stroke-linejoin="round" points="74.5,233.8 
			77.5,233.8 79,235.6 		"/>
		
			<polyline fill="none" stroke="#CCCCCC" stroke-width="3" stroke-linecap="round" stroke-linejoin="round" stroke-dasharray="4.8007,6.721" points="
			84,240.6 93,249.6 93,291.3 		"/>
		<polyline fill="none" stroke="#CCCCCC" stroke-width="3" stroke-linecap="round" stroke-linejoin="round" points="93,294.3 
			93,296.8 90.5,296.8 		"/>
		
			<line fill="none" stroke="#CCCCCC" stroke-width="3" stroke-linecap="round" stroke-linejoin="round" stroke-dasharray="5,7" x1="83.5" y1="296.8" x2="36.5" y2="296.8"/>
		<polyline fill="none" stroke="#CCCCCC" stroke-width="3" stroke-linecap="round" stroke-linejoin="round" points="32.5,296.8 
			30,296.8 30,294.3 		"/>
		
			<line fill="none" stroke="#CCCCCC" stroke-width="3" stroke-linecap="round" stroke-linejoin="round" stroke-dasharray="5,7" x1="30" y1="287.3" x2="30" y2="240.3"/>
	</g>
</g>
<polygon fill="#FFFFFF" points="-1.5,226.3 46.5,226.3 61.5,241.6 61.5,289.3 -1.5,289.3 "/>
<path d="M-196.2,231.2c1.6,0,2.9,1.3,2.9,2.8c0,1.6-1.3,2.8-2.9,2.8s-2.9-1.3-2.9-2.8C-199,232.4-197.7,231.2-196.2,231.2z
	 M-206.7,234c0-1.6,1.3-2.8,2.9-2.8c1.6,0,2.9,1.3,2.9,2.8c0,1.6-1.3,2.8-2.9,2.8S-206.7,235.5-206.7,234z M-98.4,292.3v24h-107.8
	v-73.8h107.8v23.2h7.6v-34c0-4.2-3.5-7.7-7.7-7.7h-107.7c-4.2,0-7.7,3.5-7.7,7.7v84.6c0,4.2,3.5,7.7,7.7,7.7h107.7
	c4.2,0,7.7-3.5,7.7-7.7v-24H-98.4z M-98.4,236.3h-92.4v-4.6h92.4V236.3z"/>
<g>
	<g>
		<g>
			<path d="M63.5,241.5c0.1,0.2,0.2,0.3,0.2,0.5C63.7,241.7,63.6,241.6,63.5,241.5z"/>
			<path d="M63.7,241.9c0-0.2-0.1-0.3-0.2-0.5c-0.1-0.1-0.1-0.2-0.2-0.2l-16.4-16.3c-0.3-0.3-0.6-0.4-1-0.4H-0.5
				c-0.8,0-1.3,0.6-1.3,1.3V289c0,0.8,0.6,1.3,1.3,1.3h62.8c0.8,0,1.3-0.6,1.3-1.3v-46.9C63.7,242.1,63.7,242,63.7,241.9z
				 M47.4,229.1l11.7,11.7H47.4V229.1z M61,287.7H0.9v-60.5h43.8v15c0,0.8,0.6,1.3,1.3,1.3h15V287.7L61,287.7z"/>
		</g>
	</g>
	<g>
		<g>
			<path d="M34.9,233.6H7.2c-0.8,0-1.3,0.6-1.3,1.3v23.2c0,0.8,0.6,1.3,1.3,1.3h27.7c0.8,0,1.3-0.6,1.3-1.3V235
				C36.2,234.2,35.6,233.6,34.9,233.6z M8.5,236.3h25v11.1l-5.6-5.6c-0.5-0.5-1.4-0.5-1.9,0l-8.7,8.8l-2.6-2.6
				c-0.5-0.5-1.4-0.5-1.9,0l-4.2,4.2L8.5,236.3L8.5,236.3z M33.6,256.8H8.5V256l5.2-5.2l2.6,2.6c0.5,0.5,1.4,0.5,1.9,0l8.7-8.7
				l6.6,6.6L33.6,256.8L33.6,256.8z"/>
		</g>
		<g>
			<path d="M15.3,246.3c-2.2,0-4-1.8-4-4s1.8-4,4-4s4,1.8,4,4S17.5,246.3,15.3,246.3z M15.3,241c-0.7,0-1.3,0.6-1.3,1.3
				s0.6,1.3,1.3,1.3s1.3-0.6,1.3-1.3S16,241,15.3,241z"/>
		</g>
	</g>
	<head></head>
</g>
<text transform="matrix(1 0 0 1 -12.9497 325.5)" font-family="'PalanquinDark-Medium'" font-size="21">jpg or png</text>
<g>
	<path d="M44.6,307c-0.3,0-0.6-0.1-0.9-0.2c-0.7-0.2-1.3-0.8-1.6-1.4c-0.9-1.8-1.8-3.7-2.6-5.5c-0.4-0.8-0.7-1.5-1.1-2.3l-3.1,2.9
		c-0.5,0.5-1.2,0.8-2,0.8c-0.4,0-0.7-0.1-1.1-0.2c-1-0.4-1.7-1.4-1.7-2.5L30.3,288c-0.1-5.1-0.2-10.5-0.3-15.9c0-0.8,0.3-1.5,0.8-2
		s1.2-0.8,2-0.8c0.7,0,1.3,0.2,1.8,0.6L55,286.8c0.8,0.7,1.2,1.9,0.9,2.9c-0.3,1.1-1.2,1.9-2.3,2l-4.2,0.6l3.7,7.8
		c0.3,0.7,0.4,1.4,0.1,2.1c-0.2,0.7-0.8,1.3-1.4,1.6l-6,2.9C45.4,306.9,45,307,44.6,307L44.6,307z"/>
	<path fill="#FFFFFF" d="M32.8,271.4c0.2,0,0.4,0.1,0.5,0.2c6,5,13.3,11,20.4,16.9c0.2,0.2,0.3,0.5,0.3,0.8
		c-0.1,0.3-0.4,0.5-0.7,0.6c-2.3,0.3-4.6,0.6-7,0.9c1.6,3.4,3.3,6.8,4.9,10.3c0.1,0.2,0.1,0.4,0,0.6s-0.2,0.4-0.4,0.5
		c-2,0.9-3.8,1.8-6,2.9c-0.1,0.1-0.2,0.1-0.4,0.1c-0.1,0-0.2,0-0.3,0c-0.2-0.1-0.4-0.2-0.5-0.4c-1.6-3.4-3.3-6.8-4.9-10.3
		c-1.5,1.4-3.3,3.2-5.1,4.9c-0.1,0.1-0.4,0.2-0.6,0.2c-0.1,0-0.2,0-0.3-0.1c-0.3-0.1-0.5-0.4-0.5-0.7c-0.1-7.9-0.3-17.3-0.5-26.5
		c0-0.2,0.1-0.4,0.2-0.6C32.4,271.5,32.6,271.4,32.8,271.4L32.8,271.4 M32.8,267.4L32.8,267.4L32.8,267.4c-1.3,0-2.5,0.5-3.4,1.4
		c-0.9,0.9-1.4,2.2-1.4,3.5c0.1,5.4,0.2,11,0.3,16.2c0.1,3.6,0.1,7,0.2,10.2c0,1.9,1.2,3.6,3,4.3c0.6,0.2,1.2,0.4,1.8,0.4
		c1.3,0,2.4-0.5,3.3-1.3l1.1-1c0.8,1.8,1.7,3.5,2.5,5.3c0.5,1.1,1.5,2,2.7,2.4c0.5,0.2,1,0.3,1.6,0.3c0.7,0,1.4-0.2,2.1-0.5
		c1.4-0.7,2.6-1.3,3.9-1.9l2.1-1c1.1-0.5,2-1.5,2.5-2.7c0.4-1.2,0.3-2.5-0.2-3.7l-2.1-4.4l-0.4-0.9l1.5-0.2c1.9-0.2,3.5-1.6,4-3.4
		s-0.1-3.8-1.5-5l-7-5.8c-4.7-3.9-9.3-7.7-13.3-11C35,267.8,34,267.4,32.8,267.4L32.8,267.4z"/>
</g>
<head></head>
<g>
	<polygon points="-131.3,278.3 -106.5,254.1 -106.5,268.8 -21.2,268.8 -21.2,287.8 -106.5,287.8 -106.5,302.6 	"/>
	<path fill="#FFFFFF" d="M-108.6,258.8v12h85.3v15h-85.3v12l-19.9-19.5L-108.6,258.8 M-104.6,249.3l-6.8,6.7l-19.9,19.5l-2.9,2.9
		l2.9,2.9l19.9,19.5l6.8,6.7v-9.5v-8h81.3h4v-4v-15v-4h-4h-81.3v-8V249.3L-104.6,249.3z"/>
</g>
</svg>
