<svg xmlns="http://www.w3.org/2000/svg" width="419" height="194" viewBox="-270 184 419 194" enable-background="new -270 184 419 194"><path fill="none" stroke="#000" stroke-width="2" stroke-miterlimit="10" d="M-120.4 285.8h-61.4c-.6 0-1-.4-1-1v-14.1c0-.6.4-1 1-1h61.4c.6 0 1 .4 1 1v14.1c0 .6-.4 1-1 1z"/><g fill="none" stroke="#ccc" stroke-width="3" stroke-linecap="round" stroke-linejoin="round"><path d="M30 236.3v-2.5h2.5"/><path stroke-dasharray="5,7" d="M39.5 233.8h32"/><path d="M74.5 233.8h3l1.5 1.8"/><path stroke-dasharray="4.8007,6.721" d="M84 240.6l9 9v41.7"/><path d="M93 294.3v2.5h-2.5"/><path stroke-dasharray="5,7" d="M83.5 296.8h-47"/><path d="M32.5 296.8H30v-2.5"/><path stroke-dasharray="5,7" d="M30 287.3v-47"/></g><path fill="#fff" d="M-1.5 226.3h48l15 15.3v47.7h-63z"/><path d="M-196.2 231.2c1.6 0 2.9 1.3 2.9 2.8 0 1.6-1.3 2.8-2.9 2.8s-2.9-1.3-2.9-2.8c.1-1.6 1.4-2.8 2.9-2.8zm-10.5 2.8c0-1.6 1.3-2.8 2.9-2.8 1.6 0 2.9 1.3 2.9 2.8 0 1.6-1.3 2.8-2.9 2.8s-2.9-1.3-2.9-2.8zm108.3 58.3v24h-107.8v-73.8h107.8v23.2h7.6v-34c0-4.2-3.5-7.7-7.7-7.7h-107.7c-4.2 0-7.7 3.5-7.7 7.7v84.6c0 4.2 3.5 7.7 7.7 7.7h107.7c4.2 0 7.7-3.5 7.7-7.7v-24h-7.6zm0-56h-92.4v-4.6h92.4v4.6zM63.5 241.5c.1.2.2.3.2.5 0-.3-.1-.4-.2-.5zM63.7 241.9c0-.2-.1-.3-.2-.5-.1-.1-.1-.2-.2-.2l-16.4-16.3c-.3-.3-.6-.4-1-.4H-.5c-.8 0-1.3.6-1.3 1.3V289c0 .8.6 1.3 1.3 1.3h62.8c.8 0 1.3-.6 1.3-1.3v-46.9c.1 0 .1-.1.1-.2zm-16.3-12.8l11.7 11.7H47.4v-11.7zM61 287.7H.9v-60.5h43.8v15c0 .8.6 1.3 1.3 1.3h15v44.2zM34.9 233.6H7.2c-.8 0-1.3.6-1.3 1.3v23.2c0 .8.6 1.3 1.3 1.3h27.7c.8 0 1.3-.6 1.3-1.3V235c0-.8-.6-1.4-1.3-1.4zm-26.4 2.7h25v11.1l-5.6-5.6c-.5-.5-1.4-.5-1.9 0l-8.7 8.8-2.6-2.6c-.5-.5-1.4-.5-1.9 0l-4.2 4.2-.1-15.9zm25.1 20.5H8.5v-.8l5.2-5.2 2.6 2.6c.5.5 1.4.5 1.9 0l8.7-8.7 6.6 6.6.1 5.5zM15.3 246.3c-2.2 0-4-1.8-4-4s1.8-4 4-4 4 1.8 4 4-1.8 4-4 4zm0-5.3c-.7 0-1.3.6-1.3 1.3s.6 1.3 1.3 1.3 1.3-.6 1.3-1.3-.6-1.3-1.3-1.3z"/><text transform="translate(-12.95 325.5)" font-family="'PalanquinDark-Medium'" font-size="21">jpg or png</text><path d="M44.6 307c-.3 0-.6-.1-.9-.2-.7-.2-1.3-.8-1.6-1.4-.9-1.8-1.8-3.7-2.6-5.5-.4-.8-.7-1.5-1.1-2.3l-3.1 2.9c-.5.5-1.2.8-2 .8-.4 0-.7-.1-1.1-.2-1-.4-1.7-1.4-1.7-2.5l-.2-10.6c-.1-5.1-.2-10.5-.3-15.9 0-.8.3-1.5.8-2s1.2-.8 2-.8c.7 0 1.3.2 1.8.6L55 286.8c.8.7 1.2 1.9.9 2.9-.3 1.1-1.2 1.9-2.3 2l-4.2.6 3.7 7.8c.3.7.4 1.4.1 2.1-.2.7-.8 1.3-1.4 1.6l-6 2.9c-.4.2-.8.3-1.2.3z"/><path fill="#fff" d="M32.8 271.4c.2 0 .4.1.5.2 6 5 13.3 11 20.4 16.9.2.2.3.5.3.8-.1.3-.4.5-.7.6-2.3.3-4.6.6-7 .9 1.6 3.4 3.3 6.8 4.9 10.3.1.2.1.4 0 .6s-.2.4-.4.5c-2 .9-3.8 1.8-6 2.9-.1.1-.2.1-.4.1h-.3c-.2-.1-.4-.2-.5-.4-1.6-3.4-3.3-6.8-4.9-10.3-1.5 1.4-3.3 3.2-5.1 4.9-.1.1-.4.2-.6.2-.1 0-.2 0-.3-.1-.3-.1-.5-.4-.5-.7-.1-7.9-.3-17.3-.5-26.5 0-.2.1-.4.2-.6.5-.2.7-.3.9-.3m0-4c-1.3 0-2.5.5-3.4 1.4-.9.9-1.4 2.2-1.4 3.5.1 5.4.2 11 .3 16.2.1 3.6.1 7 .2 10.2 0 1.9 1.2 3.6 3 4.3.6.2 1.2.4 1.8.4 1.3 0 2.4-.5 3.3-1.3l1.1-1c.8 1.8 1.7 3.5 2.5 5.3.5 1.1 1.5 2 2.7 2.4.5.2 1 .3 1.6.3.7 0 1.4-.2 2.1-.5 1.4-.7 2.6-1.3 3.9-1.9l2.1-1c1.1-.5 2-1.5 2.5-2.7.4-1.2.3-2.5-.2-3.7l-2.1-4.4-.4-.9 1.5-.2c1.9-.2 3.5-1.6 4-3.4s-.1-3.8-1.5-5l-7-5.8c-4.7-3.9-9.3-7.7-13.3-11-1.1-.8-2.1-1.2-3.3-1.2z"/><path d="M-131.3 278.3l24.8-24.2v14.7h85.3v19h-85.3v14.8z"/><path fill="#fff" d="M-108.6 258.8v12h85.3v15h-85.3v12l-19.9-19.5 19.9-19.5m4-9.5l-6.8 6.7-19.9 19.5-2.9 2.9 2.9 2.9 19.9 19.5 6.8 6.7V290h85.3v-23h-85.3v-17.7z"/></svg>