<svg xmlns="http://www.w3.org/2000/svg" width="419" height="194" viewBox="-270 184 419 194" enable-background="new -270 184 419 194"><g fill="none" stroke="#ccc" stroke-width="3" stroke-linecap="round" stroke-linejoin="round"><path d="M22.5 239v-2.5H25"/><path stroke-dasharray="5,7" d="M32 236.5h32"/><path d="M67 236.5h3l1.5 1.8"/><path stroke-dasharray="4.8007,6.721" d="M76.5 243.3l9 9V294"/><path d="M85.5 297v2.5H83"/><path stroke-dasharray="5,7" d="M76 299.5H29"/><path d="M25 299.5h-2.5V297"/><path stroke-dasharray="5,7" d="M22.5 290v-47"/></g><path fill="#fff" d="M-9 229h48l15 15.3V292H-9z"/><path d="M-203.7 233.9c1.6 0 2.9 1.3 2.9 2.8 0 1.6-1.3 2.8-2.9 2.8s-2.9-1.3-2.9-2.8c.1-1.6 1.4-2.8 2.9-2.8zm-10.5 2.8c0-1.6 1.3-2.8 2.9-2.8 1.6 0 2.9 1.3 2.9 2.8 0 1.6-1.3 2.8-2.9 2.8-1.6 0-2.9-1.3-2.9-2.8zm108.3 58.3v24h-107.8v-73.8h107.8v23.2h7.6v-34c0-4.2-3.5-7.7-7.7-7.7h-107.7c-4.2 0-7.7 3.5-7.7 7.7V319c0 4.2 3.5 7.7 7.7 7.7H-106c4.2 0 7.7-3.5 7.7-7.7v-24h-7.6zm0-56h-92.4v-4.6h92.4v4.6zM56 244.2c.1.2.2.3.2.5 0-.3-.1-.4-.2-.5zM56.2 244.6c0-.2-.1-.3-.2-.5-.1-.1-.1-.2-.2-.2l-16.4-16.3c-.3-.3-.6-.4-1-.4H-8c-.8 0-1.3.6-1.3 1.3v63.2c0 .8.6 1.3 1.3 1.3h62.8c.8 0 1.3-.6 1.3-1.3v-46.9c.1 0 .1-.1.1-.2zm-16.3-12.8l11.7 11.7H39.9v-11.7zm13.6 58.6H-6.6v-60.5h43.8v15c0 .8.6 1.3 1.3 1.3h15v44.2zM27.4 236.3H-.3c-.8 0-1.3.6-1.3 1.3v23.2c0 .8.6 1.3 1.3 1.3h27.7c.8 0 1.3-.6 1.3-1.3v-23.1c0-.8-.6-1.4-1.3-1.4zM1 239h25v11.1l-5.6-5.6c-.5-.5-1.4-.5-1.9 0l-8.7 8.8-2.6-2.6c-.5-.5-1.4-.5-1.9 0l-4.2 4.2L1 239zm25.1 20.5H1v-.8l5.2-5.2 2.6 2.6c.5.5 1.4.5 1.9 0l8.7-8.7L26 254l.1 5.5zM7.8 249c-2.2 0-4-1.8-4-4s1.8-4 4-4 4 1.8 4 4-1.8 4-4 4zm0-5.3c-.7 0-1.3.6-1.3 1.3s.6 1.3 1.3 1.3 1.3-.6 1.3-1.3-.6-1.3-1.3-1.3z"/><text transform="translate(-20.4 328.167)" font-family="'PalanquinDark-Medium'" font-size="21">jpg or png</text><path d="M37.1 309.7c-.3 0-.6-.1-.9-.2-.7-.2-1.3-.8-1.6-1.4-.9-1.8-1.8-3.7-2.6-5.5-.4-.8-.7-1.5-1.1-2.3l-3.1 2.9c-.5.5-1.2.8-2 .8-.4 0-.7-.1-1.1-.2-1-.4-1.7-1.4-1.7-2.5l-.2-10.6c-.1-5.1-.2-10.5-.3-15.9 0-.8.3-1.5.8-2s1.2-.8 2-.8c.7 0 1.3.2 1.8.6l20.4 16.9c.8.7 1.2 1.9.9 2.9-.3 1.1-1.2 1.9-2.3 2l-4.2.6 3.7 7.8c.3.7.4 1.4.1 2.1-.2.7-.8 1.3-1.4 1.6l-6 2.9c-.4.2-.8.3-1.2.3z"/><path fill="#fff" d="M25.3 274.1c.2 0 .4.1.5.2 6 5 13.3 11 20.4 16.9.2.2.3.5.3.8-.1.3-.4.5-.7.6-2.3.3-4.6.6-7 .9 1.6 3.4 3.3 6.8 4.9 10.3.1.2.1.4 0 .6-.1.2-.2.4-.4.5-2 .9-3.8 1.8-6 2.9-.1.1-.2.1-.4.1h-.3c-.2-.1-.4-.2-.5-.4-1.6-3.4-3.3-6.8-4.9-10.3-1.5 1.4-3.3 3.2-5.1 4.9-.1.1-.4.2-.6.2-.1 0-.2 0-.3-.1-.3-.1-.5-.4-.5-.7-.1-7.9-.3-17.3-.5-26.5 0-.2.1-.4.2-.6.5-.2.7-.3.9-.3m0-4c-1.3 0-2.5.5-3.4 1.4s-1.4 2.2-1.4 3.5c.1 5.4.2 11 .3 16.2.1 3.6.1 7 .2 10.2 0 1.9 1.2 3.6 3 4.3.6.2 1.2.4 1.8.4 1.3 0 2.4-.5 3.3-1.3l1.1-1c.8 1.8 1.7 3.5 2.5 5.3.5 1.1 1.5 2 2.7 2.4.5.2 1 .3 1.6.3.7 0 1.4-.2 2.1-.5 1.4-.7 2.6-1.3 3.9-1.9l2.1-1c1.1-.5 2-1.5 2.5-2.7.4-1.2.3-2.5-.2-3.7l-2.1-4.4-.4-.9 1.5-.2c1.9-.2 3.5-1.6 4-3.4s-.1-3.8-1.5-5l-7-5.8c-4.7-3.9-9.3-7.7-13.3-11-1.1-.8-2.1-1.2-3.3-1.2z"/><path d="M-135.9 281l19.9 19.5v-12h85.3v-15H-116v-12z"/></svg>