<?xml version="1.0" encoding="utf-8"?>
<!-- Generator: Adobe Illustrator 18.1.1, SVG Export Plug-In . SVG Version: 6.00 Build 0)  -->
<!DOCTYPE svg PUBLIC "-//W3C//DTD SVG 1.1//EN" "http://www.w3.org/Graphics/SVG/1.1/DTD/svg11.dtd">
<svg version="1.1" id="Layer_1" xmlns="http://www.w3.org/2000/svg" xmlns:xlink="http://www.w3.org/1999/xlink" x="0px" y="0px"
	 width="419px" height="194px" viewBox="-270 184 419 194" enable-background="new -270 184 419 194" xml:space="preserve">
<g>
	<g>
		<polyline fill="none" stroke="#CCCCCC" stroke-width="3" stroke-linecap="round" stroke-linejoin="round" points="22.5,239 
			22.5,236.5 25,236.5 		"/>
		
			<line fill="none" stroke="#CCCCCC" stroke-width="3" stroke-linecap="round" stroke-linejoin="round" stroke-dasharray="5,7" x1="32" y1="236.5" x2="64" y2="236.5"/>
		<polyline fill="none" stroke="#CCCCCC" stroke-width="3" stroke-linecap="round" stroke-linejoin="round" points="67,236.5 
			70,236.5 71.5,238.3 		"/>
		
			<polyline fill="none" stroke="#CCCCCC" stroke-width="3" stroke-linecap="round" stroke-linejoin="round" stroke-dasharray="4.8007,6.721" points="
			76.5,243.3 85.5,252.3 85.5,294 		"/>
		<polyline fill="none" stroke="#CCCCCC" stroke-width="3" stroke-linecap="round" stroke-linejoin="round" points="85.5,297 
			85.5,299.5 83,299.5 		"/>
		
			<line fill="none" stroke="#CCCCCC" stroke-width="3" stroke-linecap="round" stroke-linejoin="round" stroke-dasharray="5,7" x1="76" y1="299.5" x2="29" y2="299.5"/>
		<polyline fill="none" stroke="#CCCCCC" stroke-width="3" stroke-linecap="round" stroke-linejoin="round" points="25,299.5 
			22.5,299.5 22.5,297 		"/>
		
			<line fill="none" stroke="#CCCCCC" stroke-width="3" stroke-linecap="round" stroke-linejoin="round" stroke-dasharray="5,7" x1="22.5" y1="290" x2="22.5" y2="243"/>
	</g>
</g>
<polygon fill="#FFFFFF" points="-9,229 39,229 54,244.3 54,292 -9,292 "/>
<path d="M-203.7,233.9c1.6,0,2.9,1.3,2.9,2.8c0,1.6-1.3,2.8-2.9,2.8s-2.9-1.3-2.9-2.8C-206.5,235.1-205.2,233.9-203.7,233.9z
	 M-214.2,236.7c0-1.6,1.3-2.8,2.9-2.8c1.6,0,2.9,1.3,2.9,2.8c0,1.6-1.3,2.8-2.9,2.8C-212.9,239.5-214.2,238.2-214.2,236.7z
	 M-105.9,295v24h-107.8v-73.8h107.8v23.2h7.6v-34c0-4.2-3.5-7.7-7.7-7.7h-107.7c-4.2,0-7.7,3.5-7.7,7.7V319c0,4.2,3.5,7.7,7.7,7.7
	H-106c4.2,0,7.7-3.5,7.7-7.7v-24H-105.9z M-105.9,239h-92.4v-4.6h92.4V239z"/>
<g>
	<g>
		<g>
			<path d="M56,244.2c0.1,0.2,0.2,0.3,0.2,0.5C56.2,244.4,56.1,244.3,56,244.2z"/>
			<path d="M56.2,244.6c0-0.2-0.1-0.3-0.2-0.5c-0.1-0.1-0.1-0.2-0.2-0.2l-16.4-16.3c-0.3-0.3-0.6-0.4-1-0.4H-8
				c-0.8,0-1.3,0.6-1.3,1.3v63.2c0,0.8,0.6,1.3,1.3,1.3h62.8c0.8,0,1.3-0.6,1.3-1.3v-46.9C56.2,244.8,56.2,244.7,56.2,244.6z
				 M39.9,231.8l11.7,11.7H39.9V231.8z M53.5,290.4H-6.6v-60.5h43.8v15c0,0.8,0.6,1.3,1.3,1.3h15L53.5,290.4L53.5,290.4z"/>
		</g>
	</g>
	<g>
		<g>
			<path d="M27.4,236.3H-0.3c-0.8,0-1.3,0.6-1.3,1.3v23.2c0,0.8,0.6,1.3,1.3,1.3h27.7c0.8,0,1.3-0.6,1.3-1.3v-23.1
				C28.7,236.9,28.1,236.3,27.4,236.3z M1,239h25v11.1l-5.6-5.6c-0.5-0.5-1.4-0.5-1.9,0l-8.7,8.8l-2.6-2.6c-0.5-0.5-1.4-0.5-1.9,0
				l-4.2,4.2L1,239L1,239z M26.1,259.5H1v-0.8l5.2-5.2l2.6,2.6c0.5,0.5,1.4,0.5,1.9,0l8.7-8.7L26,254L26.1,259.5L26.1,259.5z"/>
		</g>
		<g>
			<path d="M7.8,249c-2.2,0-4-1.8-4-4s1.8-4,4-4s4,1.8,4,4S10,249,7.8,249z M7.8,243.7c-0.7,0-1.3,0.6-1.3,1.3s0.6,1.3,1.3,1.3
				s1.3-0.6,1.3-1.3S8.5,243.7,7.8,243.7z"/>
		</g>
	</g>
	<head></head>
</g>
<text transform="matrix(1 0 0 1 -20.3997 328.1667)" font-family="'PalanquinDark-Medium'" font-size="21">jpg or png</text>
<g>
	<path d="M37.1,309.7c-0.3,0-0.6-0.1-0.9-0.2c-0.7-0.2-1.3-0.8-1.6-1.4c-0.9-1.8-1.8-3.7-2.6-5.5c-0.4-0.8-0.7-1.5-1.1-2.3l-3.1,2.9
		c-0.5,0.5-1.2,0.8-2,0.8c-0.4,0-0.7-0.1-1.1-0.2c-1-0.4-1.7-1.4-1.7-2.5l-0.2-10.6c-0.1-5.1-0.2-10.5-0.3-15.9c0-0.8,0.3-1.5,0.8-2
		s1.2-0.8,2-0.8c0.7,0,1.3,0.2,1.8,0.6l20.4,16.9c0.8,0.7,1.2,1.9,0.9,2.9c-0.3,1.1-1.2,1.9-2.3,2l-4.2,0.6l3.7,7.8
		c0.3,0.7,0.4,1.4,0.1,2.1c-0.2,0.7-0.8,1.3-1.4,1.6l-6,2.9C37.9,309.6,37.5,309.7,37.1,309.7L37.1,309.7z"/>
	<path fill="#FFFFFF" d="M25.3,274.1c0.2,0,0.4,0.1,0.5,0.2c6,5,13.3,11,20.4,16.9c0.2,0.2,0.3,0.5,0.3,0.8
		c-0.1,0.3-0.4,0.5-0.7,0.6c-2.3,0.3-4.6,0.6-7,0.9c1.6,3.4,3.3,6.8,4.9,10.3c0.1,0.2,0.1,0.4,0,0.6c-0.1,0.2-0.2,0.4-0.4,0.5
		c-2,0.9-3.8,1.8-6,2.9c-0.1,0.1-0.2,0.1-0.4,0.1c-0.1,0-0.2,0-0.3,0c-0.2-0.1-0.4-0.2-0.5-0.4c-1.6-3.4-3.3-6.8-4.9-10.3
		c-1.5,1.4-3.3,3.2-5.1,4.9c-0.1,0.1-0.4,0.2-0.6,0.2c-0.1,0-0.2,0-0.3-0.1c-0.3-0.1-0.5-0.4-0.5-0.7c-0.1-7.9-0.3-17.3-0.5-26.5
		c0-0.2,0.1-0.4,0.2-0.6C24.9,274.2,25.1,274.1,25.3,274.1L25.3,274.1 M25.3,270.1L25.3,270.1L25.3,270.1c-1.3,0-2.5,0.5-3.4,1.4
		s-1.4,2.2-1.4,3.5c0.1,5.4,0.2,11,0.3,16.2c0.1,3.6,0.1,7,0.2,10.2c0,1.9,1.2,3.6,3,4.3c0.6,0.2,1.2,0.4,1.8,0.4
		c1.3,0,2.4-0.5,3.3-1.3l1.1-1c0.8,1.8,1.7,3.5,2.5,5.3c0.5,1.1,1.5,2,2.7,2.4c0.5,0.2,1,0.3,1.6,0.3c0.7,0,1.4-0.2,2.1-0.5
		c1.4-0.7,2.6-1.3,3.9-1.9l2.1-1c1.1-0.5,2-1.5,2.5-2.7c0.4-1.2,0.3-2.5-0.2-3.7l-2.1-4.4l-0.4-0.9l1.5-0.2c1.9-0.2,3.5-1.6,4-3.4
		s-0.1-3.8-1.5-5l-7-5.8c-4.7-3.9-9.3-7.7-13.3-11C27.5,270.5,26.5,270.1,25.3,270.1L25.3,270.1z"/>
</g>
<head></head>
<polygon points="-135.9,281 -116,300.5 -116,288.5 -30.7,288.5 -30.7,273.5 -116,273.5 -116,261.5 "/>
</svg>
