<svg xmlns="http://www.w3.org/2000/svg" width="460.7" height="97.6" viewBox="0 0 460.7 97.6"><g><path d="M187.5 42.8V47c.3-.2.7-.3 1.1-.5.4-.1.7-.2 1.1-.2 1.3 0 2.3.4 3 1.3.7.9 1 2 1 3.3s-.4 2.4-1.1 3.3c-.7.9-1.7 1.3-2.9 1.3-.4 0-.9-.1-1.4-.3s-1-.4-1.3-.7l-.6.7h-1.2V43l2.3-.2zm1.5 10.9c.8 0 1.4-.3 1.7-.9s.5-1.2.5-1.8c0-.7-.1-1.3-.4-1.8s-.9-.8-1.7-.8c-.3 0-.5 0-.8.1-.3.1-.5.2-.8.4v4.3c.2.1.5.3.8.4.2.1.5.1.7.1zM200 55.7c-1.5 0-2.7-.4-3.6-1.2-.9-.8-1.3-1.9-1.3-3.3s.4-2.5 1.2-3.3 1.9-1.3 3.2-1.3c1.4 0 2.4.5 3 1.4.6.9 1 2 1 3.2v.7h-5.9c.1.6.4 1 .8 1.4.4.3 1 .5 1.7.5.4 0 .8-.1 1.1-.2.3-.1.7-.2 1.1-.4l.7 1.7c-.4.3-.9.5-1.5.7s-1.1.1-1.5.1zm1.3-5.5c-.1-.6-.3-1-.6-1.3-.3-.3-.7-.4-1.2-.4s-.9.1-1.2.4c-.3.3-.5.7-.6 1.3h3.6zM209.4 48.5c-.7 0-1.2.2-1.5.7-.4.5-.6 1.1-.6 1.9 0 .8.2 1.4.6 1.9.4.5.9.7 1.5.7.4 0 .8-.1 1.1-.2.3-.1.7-.2 1.1-.4l.7 1.7c-.4.3-.9.5-1.5.7s-1.1.2-1.4.2c-1.4 0-2.5-.4-3.3-1.2-.8-.8-1.2-1.9-1.2-3.3s.4-2.5 1.2-3.3 1.9-1.3 3.3-1.3c.4 0 .8.1 1.4.2.6.2 1.1.4 1.5.7l-.7 1.7c-.4-.2-.8-.3-1.1-.4-.3-.2-.7-.3-1.1-.3zM218.1 55.7c-1.4 0-2.5-.4-3.2-1.3-.8-.8-1.2-2-1.2-3.4s.4-2.5 1.2-3.3 1.9-1.2 3.3-1.2c1.5 0 2.6.4 3.4 1.3.8.9 1.2 2 1.2 3.4s-.4 2.5-1.3 3.3c-.9.8-2 1.2-3.4 1.2zm2.3-4.5c0-.8-.2-1.5-.5-2s-.9-.7-1.6-.7c-.7 0-1.2.2-1.6.6-.4.4-.6 1.1-.6 1.9s.2 1.5.5 2c.3.4.8.7 1.5.7s1.2-.2 1.6-.6.7-1 .7-1.9zM232.2 47.8c.4-.4.9-.8 1.5-1s1.2-.4 1.7-.4c1.2 0 2 .3 2.5 1s.7 1.5.7 2.6v5.5h-2.4v-5.4c0-.6-.1-1-.4-1.3-.3-.3-.6-.4-1.2-.4-.3 0-.7.1-1.1.3-.4.2-.7.4-1 .6v6.3h-2.4v-5.4c0-.6-.1-1-.4-1.3-.3-.3-.6-.4-1.1-.4-.3 0-.6.1-.9.2-.3.1-.6.3-.9.5v6.4h-2.3v-8.7h1.2l.6.8c.4-.4.9-.6 1.4-.8.6-.2 1.1-.3 1.5-.3.7 0 1.3.1 1.7.4s1 .4 1.3.8zM245.2 55.7c-1.5 0-2.7-.4-3.6-1.2-.9-.8-1.3-1.9-1.3-3.3s.4-2.5 1.2-3.3c.8-.8 1.9-1.3 3.2-1.3 1.4 0 2.4.5 3 1.4.6.9 1 2 1 3.2v.7h-5.9c.1.6.4 1 .8 1.4s1 .5 1.7.5c.4 0 .8-.1 1.1-.2.3-.1.7-.2 1.1-.4l.7 1.7c-.4.3-.9.5-1.5.7s-1.1.1-1.5.1zm1.3-5.5c-.1-.6-.3-1-.6-1.3-.3-.3-.7-.4-1.2-.4s-.9.1-1.2.4c-.3.3-.5.7-.6 1.3h3.6zM255.7 49.1c-.4-.2-.8-.3-1.2-.4-.4-.1-.7-.2-1.2-.2-.3 0-.5.1-.7.2s-.2.3-.2.5c0 .1.1.3.3.4.2.1.5.3 1 .4.7.3 1.4.6 2 1.1.6.5.9 1.1.9 1.8 0 .9-.3 1.5-.9 2-.6.5-1.5.7-2.7.7-.4 0-.9-.1-1.5-.2s-1.1-.4-1.5-.7l.7-1.7c.4.2.8.3 1.2.4.4.1.7.2 1.1.2.4 0 .8-.1 1-.2.2-.1.3-.3.3-.5s-.1-.5-.3-.6c-.2-.2-.6-.4-1.1-.5-.7-.2-1.4-.6-2-1s-.9-1-.9-1.7c0-.8.3-1.5.9-2s1.4-.7 2.5-.7c.4 0 .9.1 1.4.2.6.2 1.1.4 1.5.7l-.6 1.8zM332 61.9l4.8 11.9-2.3.3-1.1-2.9h-4.6l-1.1 2.9h-2.3l4.8-12.2h1.8zm-1.1 3.2l-1.6 4.3h3.2l-1.6-4.3zM340.3 74.2l-3.3-8.4 2.4-.3 2 5.3 1.9-5.3h2.5l-3.4 8.7h-2.1zM349.8 74.4c-1.1 0-1.9-.3-2.4-.8s-.8-1.2-.8-2c0-.9.3-1.6.9-2.1.6-.5 1.4-.7 2.4-.7h1.7c0-.4-.1-.8-.4-1-.2-.2-.6-.4-1-.4s-.9.1-1.3.2c-.5.1-.9.2-1.2.4l-.6-1.9c.3-.2.8-.4 1.5-.6.7-.1 1.2-.2 1.6-.2 1 0 1.9.3 2.7.9.7.6 1.1 1.4 1.1 2.3v5.7h-1.2l-.6-.7c-.3.3-.7.5-1.1.7-.4.1-.8.2-1.3.2zm-1.1-2.9c0 .3.1.5.3.7.2.2.5.3.8.3.3 0 .7-.1 1-.2.3-.1.6-.4.9-.6v-1.3H350c-.4 0-.7.1-.9.4-.3.2-.4.4-.4.7zM361.6 74c-.2.2-.5.3-.8.4-.4.1-.7.2-.9.2-1.1 0-1.9-.3-2.5-.8-.6-.5-.9-1.3-.9-2.3v-4.1h-1.2v-1.8h1.2v-2.1l2.3-.4v2.5h1.6l.7 1.8h-2.3V71c0 .5.1.8.3 1.1.2.3.5.4 1 .4.2 0 .3 0 .5-.1.2 0 .3-.1.5-.2l.5 1.8zM365.8 74.4c-1.1 0-1.9-.3-2.4-.8s-.8-1.2-.8-2c0-.9.3-1.6.9-2.1.6-.5 1.4-.7 2.4-.7h1.7c0-.4-.1-.8-.4-1s-.6-.4-1-.4-.9.1-1.3.2-.9.2-1.2.4l-.6-1.9c.3-.2.8-.4 1.5-.6.7-.1 1.2-.2 1.6-.2 1 0 1.9.3 2.7.9.7.6 1.1 1.4 1.1 2.3v5.7h-1.2l-.6-.7c-.3.3-.7.5-1.1.7-.4.1-.8.2-1.3.2zm-1.1-2.9c0 .3.1.5.3.7.2.2.5.3.8.3.3 0 .7-.1 1-.2.3-.1.6-.4.9-.6v-1.3H366c-.4 0-.7.1-.9.4s-.4.4-.4.7zM377 65.4l.5 1.9c-.4 0-.9.1-1.4.3-.5.2-1 .6-1.5 1v5.5h-2.3v-8.7h1.2l.8 1.3c.4-.3.8-.6 1.3-.9.4-.2.9-.4 1.4-.4zM393.6 61.9v12.2h-2.3l-5.7-8.2v8.2h-2.3V61.9h2.3l5.7 8.2v-8.2h2.3zM399.2 74.4c-1.1 0-1.9-.3-2.4-.8s-.8-1.2-.8-2c0-.9.3-1.6.9-2.1.6-.5 1.4-.7 2.4-.7h1.7c0-.4-.1-.8-.4-1-.2-.2-.6-.4-1-.4s-.9.1-1.3.2-.9.2-1.2.4l-.6-1.9c.3-.2.8-.4 1.5-.6.7-.1 1.2-.2 1.6-.2 1 0 1.9.3 2.7.9.7.6 1.1 1.4 1.1 2.3v5.7h-1.2l-.6-.7c-.3.3-.7.5-1.1.7-.5.1-.9.2-1.3.2zm-1.2-2.9c0 .3.1.5.3.7.2.2.5.3.8.3.3 0 .7-.1 1-.2.3-.1.6-.4.9-.6v-1.3h-1.8c-.4 0-.7.1-.9.4s-.3.4-.3.7zM413.1 66.5c.4-.4.9-.8 1.5-1s1.2-.4 1.7-.4c1.2 0 2 .3 2.5 1s.7 1.5.7 2.6v5.5h-2.4v-5.4c0-.6-.1-1-.4-1.3s-.6-.4-1.2-.4c-.3 0-.7.1-1.1.3-.4.2-.7.4-1 .6v6.3H411v-5.4c0-.6-.1-1-.4-1.3s-.6-.4-1.1-.4c-.3 0-.6.1-.9.2-.3.1-.6.3-.9.5v6.4h-2.3v-8.7h1.2l.6.8c.4-.4.9-.6 1.4-.8.6-.2 1.1-.3 1.5-.3.7 0 1.3.1 1.7.4s1 .3 1.3.8zM426.1 74.4c-1.5 0-2.7-.4-3.6-1.2-.9-.8-1.3-1.9-1.3-3.3s.4-2.5 1.2-3.3c.8-.8 1.9-1.3 3.2-1.3 1.4 0 2.4.5 3 1.4.6.9 1 2 1 3.2v.7h-5.9c.1.6.4 1 .8 1.4s1 .5 1.7.5c.4 0 .8-.1 1.1-.2.3-.1.7-.2 1.1-.4l.7 1.7c-.4.3-.9.5-1.5.7s-1.1.1-1.5.1zm1.3-5.5c-.1-.6-.3-1-.6-1.3-.3-.3-.7-.4-1.2-.4s-.9.1-1.2.4c-.3.3-.5.7-.6 1.3h3.6zM26.2 69.3h-3.5v5.2h-2.3V62.2h6.9l.4 1.8h-5v3.4h3.1l.4 1.9zM30.2 61.9c.4 0 .7.1.9.4.3.3.4.6.4.9s-.1.7-.4.9c-.3.3-.6.4-.9.4-.4 0-.7-.1-.9-.4-.3-.3-.4-.6-.4-.9s.1-.7.4-.9.6-.4.9-.4zm1.2 3.9v8.7h-2.3v-8.7h2.3zM36.1 61.8v12.7h-2.3V62l2.3-.2zM43 74.7c-1.5 0-2.7-.4-3.6-1.2-.9-.8-1.3-1.9-1.3-3.3s.4-2.5 1.2-3.3 1.9-1.3 3.2-1.3c1.4 0 2.4.5 3 1.4.6.9 1 2 1 3.2v.7h-5.9c.1.6.4 1 .8 1.4.4.3 1 .5 1.7.5.4 0 .8-.1 1.1-.2.3-.1.7-.2 1.1-.4l.7 1.7c-.4.3-.9.5-1.5.7s-1.2.1-1.5.1zm1.2-5.5c-.1-.6-.3-1-.6-1.3-.3-.3-.7-.4-1.2-.4s-.9.1-1.2.4c-.3.3-.5.7-.6 1.3h3.6zM54.4 66.7c.4-.4.9-.7 1.5-.9.6-.2 1.1-.3 1.6-.3 1.2 0 2 .3 2.5 1s.7 1.5.7 2.6v5.5h-2.3v-5.4c0-.6-.1-1-.4-1.3-.3-.3-.6-.4-1.2-.4-.3 0-.7.1-1.1.3-.4.2-.7.4-1 .6v6.2h-2.3v-8.7h1.2l.8.8zM65.8 74.7c-1.1 0-1.9-.3-2.4-.8s-.8-1.2-.8-2c0-.9.3-1.6.9-2.1.6-.5 1.4-.7 2.4-.7h1.7c0-.4-.1-.8-.4-1s-.6-.4-1-.4-.9.1-1.3.2c-.5.1-.9.2-1.2.4l-.6-1.9c.3-.2.8-.4 1.5-.6.7-.1 1.2-.2 1.6-.2 1 0 1.9.3 2.7.9.7.6 1.1 1.4 1.1 2.3v5.7h-1.2l-.6-.7c-.3.3-.7.5-1.1.7-.4.1-.8.2-1.3.2zm-1.1-2.8c0 .3.1.5.3.7.2.2.5.3.8.3.3 0 .7-.1 1-.2.3-.1.6-.4.9-.6v-1.3H66c-.4 0-.7.1-.9.4-.3.1-.4.4-.4.7zM79.7 66.8c.4-.4.9-.8 1.5-1s1.2-.4 1.7-.4c1.2 0 2 .3 2.5 1s.7 1.5.7 2.6v5.5h-2.4v-5.4c0-.6-.1-1-.4-1.3-.3-.3-.6-.4-1.2-.4-.3 0-.7.1-1.1.3-.4.2-.7.4-1 .6v6.3h-2.4v-5.4c0-.6-.1-1-.4-1.3-.3-.3-.6-.4-1.1-.4-.3 0-.6.1-.9.2-.3.1-.6.3-.9.5v6.4H72v-8.7h1.2l.6.8c.4-.4.9-.6 1.4-.8.6-.2 1.1-.3 1.5-.3.7 0 1.3.1 1.7.4s1.1.4 1.3.8zM92.8 74.7c-1.5 0-2.7-.4-3.6-1.2-.9-.8-1.3-1.9-1.3-3.3s.4-2.5 1.2-3.3c.8-.8 1.9-1.3 3.2-1.3 1.4 0 2.4.5 3 1.4.6.9 1 2 1 3.2v.7h-5.9c.1.6.4 1 .8 1.4s1 .5 1.7.5c.4 0 .8-.1 1.1-.2.3-.1.7-.2 1.1-.4l.7 1.7c-.4.3-.9.5-1.5.7s-1.1.1-1.5.1zm1.3-5.5c-.1-.6-.3-1-.6-1.3-.3-.3-.7-.4-1.2-.4s-.9.1-1.2.4c-.3.3-.5.7-.6 1.3h3.6zM102.8 71.9c.4 0 .7.1.9.4s.4.6.4.9c0 .4-.1.7-.4.9s-.6.4-.9.4-.7-.1-.9-.4-.4-.6-.4-.9c0-.4.1-.7.4-.9s.5-.4.9-.4zM108.1 65.8v8.9c0 .8-.2 1.5-.7 2-.5.5-1.3.9-2.4 1.3l-.9-1.8c.6-.2 1.1-.5 1.3-.8.3-.3.4-.7.4-1.3v-8.4h2.3zm-1.2-3.9c.4 0 .7.1.9.4s.4.6.4.9-.1.7-.4.9c-.3.3-.6.4-.9.4s-.7-.1-.9-.4c-.3-.3-.4-.6-.4-.9s.1-.7.4-.9.5-.4.9-.4zM110.5 65.8h1.2l.5.6c.4-.3.9-.5 1.4-.7.5-.2 1-.3 1.4-.3 1.3 0 2.3.4 3 1.3.7.9 1 2 1 3.3s-.4 2.4-1.1 3.3c-.7.9-1.7 1.3-2.9 1.3-.3 0-.7-.1-1.1-.2-.4-.1-.8-.3-1.1-.5v4.2l-2.3.2V65.8zm3.9 6.9c.8 0 1.4-.3 1.7-.9s.5-1.2.5-1.8c0-.7-.1-1.3-.4-1.8s-.9-.8-1.7-.8c-.3 0-.5 0-.8.1-.3.1-.5.2-.8.4v4.3c.2.1.5.3.8.4.2.1.4.1.7.1zM129.2 65.8v8.7c0 1.1-.4 1.9-1.1 2.7-.7.7-1.8 1.1-3.4 1.1-.4 0-.9-.1-1.6-.3-.7-.2-1.3-.4-1.8-.7l.7-1.7c.5.3 1 .5 1.4.6.4.1.8.2 1.2.2.7 0 1.2-.2 1.6-.5s.6-.8.6-1.4V74c-.4.2-.8.4-1.2.5s-.8.2-1.2.2c-1.3 0-2.2-.4-2.9-1.3-.7-.9-1-2-1-3.3s.4-2.4 1.1-3.3c.7-.9 1.7-1.3 3-1.3.4 0 .9.1 1.5.3.5.2 1 .4 1.4.8l.5-.7h1.2zm-4.1 1.6c-.8 0-1.4.3-1.7.9-.3.6-.5 1.2-.5 1.8 0 .7.1 1.3.4 1.8s.9.8 1.7.8c.3 0 .6-.1.9-.2s.6-.3.9-.4v-4c-.3-.2-.5-.3-.9-.4s-.6-.3-.8-.3z"/><path fill="#fff" d="M48.4 10h32.9l10.3 10.5v32.7H48.4z"/><g fill="#BCBEC0"><path d="M93 20.5c.1.1.1.2.1.3 0-.2-.1-.3-.1-.3zM93.1 20.7c0-.1-.1-.2-.1-.3l-.1-.1L81.6 9.1c-.2-.2-.4-.3-.7-.3H49.1c-.5 0-.9.4-.9.9V53c0 .5.4.9.9.9h43.1c.5 0 .9-.4.9-.9V20.7zM81.9 12l8 8h-8v-8zm9.3 40.1H50V10.6h30v10.3c0 .5.4.9.9.9h10.3v30.3z"/></g><path fill="#BCBEC0" d="M73.3 15h-19c-.5 0-.9.4-.9.9v15.9c0 .5.4.9.9.9h19c.5 0 .9-.4.9-.9V16c0-.5-.4-1-.9-1zm-18.1 1.9h17.1v7.6l-3.8-3.8c-.3-.3-1-.3-1.3 0l-6 6-1.8-1.8c-.3-.3-1-.3-1.3 0l-2.9 2.9V16.9zM72.4 31H55.2v-.5l3.6-3.6 1.8 1.8c.3.3 1 .3 1.3 0l6-6 4.5 4.5V31zM59.9 23.7c-1.5 0-2.7-1.2-2.7-2.7 0-1.5 1.2-2.7 2.7-2.7 1.5 0 2.7 1.2 2.7 2.7 0 1.5-1.2 2.7-2.7 2.7zm0-3.6c-.5 0-.9.4-.9.9s.4.9.9.9.9-.4.9-.9-.4-.9-.9-.9z"/><path fill="none" stroke="#A7A9AC" stroke-width="2" stroke-linejoin="round" stroke-miterlimit="10" d="M442.6 8.2v43.9H314.4V8.2"/><path fill="none" stroke="#A7A9AC" stroke-width="2" stroke-linejoin="round" stroke-miterlimit="10" d="M314.4 52.1h128.2v31.5H314.4z"/><path fill="#BCBEC0" d="M145.1 67.8l.3-.3c.2-.3.6-.4.9-.4h142.2l-.6-1.9c-.1-.3-.1-.7.1-1 .1-.2.2-.3.3-.4.4-.3.9-.4 1.4-.2l4.5 2c2.1 1 4.4 2 6.7 3 .3.2.6.4.7.7s.1.7-.1 1c-.1.3-.3.5-.6.6L289.8 76c-.5.2-1 .1-1.4-.2-.4-.3-.6-.9-.4-1.4l.6-1.9H146.5c-.4 0-.7-.1-.9-.4-.3-.2-.4-.6-.4-.9v-3.1c-.2 0-.2-.1-.1-.3z"/></g></svg>