<svg xmlns="http://www.w3.org/2000/svg" width="460.7" height="108" viewBox="0 0 460.7 108"><g><path d="M63.7 41.4c1.2 0 2.2.3 2.9.8.7.5 1.1 1.4 1.1 2.6 0 .5-.1.9-.3 1.2s-.5.7-.8.9c.6.3 1 .7 1.4 1.2.4.5.5 1.1.5 1.9 0 1.1-.4 2-1.2 2.6-.8.6-1.8 1-3.1 1h-5V41.4h4.5zm-.3 1.9h-1.9v3h1.7c.6 0 1.2-.1 1.5-.4.4-.2.5-.6.5-1.2s-.2-1-.5-1.2c-.3-.1-.8-.2-1.3-.2zm.7 4.9h-2.7v3.4H64c.6 0 1.1-.1 1.5-.4.4-.2.5-.6.5-1.2s-.2-1-.5-1.3c-.3-.3-.8-.5-1.4-.5zM75 53.8c-1.5 0-2.7-.4-3.6-1.2-.9-.8-1.3-1.9-1.3-3.3s.4-2.5 1.2-3.3c.8-.8 1.9-1.3 3.2-1.3 1.4 0 2.4.5 3 1.4.6.9 1 2 1 3.2v.7h-5.9c.1.6.4 1 .8 1.4.4.3 1 .5 1.7.5.4 0 .8-.1 1.1-.2.3-.1.7-.2 1.1-.4L78 53c-.4.3-.9.5-1.5.7s-1.2.1-1.5.1zm1.2-5.4c-.1-.6-.3-1-.6-1.3s-.7-.4-1.2-.4-.9.1-1.2.4c-.3.3-.5.7-.6 1.3h3.6zM85.4 47.2c-.4-.2-.8-.3-1.2-.4-.4-.1-.7-.2-1.2-.2-.3 0-.5.1-.7.2s-.2.3-.2.5c0 .1.1.3.3.4.2.1.5.3 1 .4.7.3 1.4.6 2 1.1.6.5.9 1.1.9 1.8 0 .9-.3 1.5-.9 2-.6.5-1.5.7-2.7.7-.4 0-.9-.1-1.5-.2s-1.1-.4-1.5-.7l.7-1.7c.4.2.8.3 1.2.4.4.1.7.2 1.1.2.4 0 .8-.1 1-.2.2-.1.3-.3.3-.5s-.1-.5-.3-.6c-.2-.2-.6-.4-1.1-.5-.7-.2-1.4-.6-2-1s-.9-1-.9-1.7c0-.8.3-1.5.9-2s1.4-.7 2.5-.7c.4 0 .9.1 1.4.2.6.2 1.1.4 1.5.7l-.6 1.8zM93.4 53.4c-.2.2-.5.3-.8.4-.4.1-.7.2-.9.2-1.1 0-1.9-.3-2.5-.8-.6-.5-.9-1.3-.9-2.3v-4.1H87V45h1.2v-2.1l2.3-.4V45h1.6l.7 1.8h-2.3v3.7c0 .5.1.8.3 1.1.2.3.5.4 1 .4.2 0 .3 0 .5-.1.2 0 .3-.1.5-.2l.6 1.7zM106.4 53.6l-1.8-5.3-1.7 5.3h-2L98 45.2l2.4-.3 1.5 5.1 1.4-5.1h2.6l1.5 5.1 1.4-5.1h2.5l-3 8.7h-1.9zM113.7 41c.4 0 .7.1.9.4s.4.6.4.9-.1.7-.4.9-.6.4-.9.4c-.4 0-.7-.1-.9-.4s-.4-.6-.4-.9.1-.7.4-.9.6-.4.9-.4zm1.2 3.9v8.7h-2.3v-8.7h2.3zM122.6 53.4c-.2.2-.5.3-.8.4-.4.1-.7.2-.9.2-1.1 0-1.9-.3-2.5-.8s-.9-1.3-.9-2.3v-4.1h-1.2V45h1.2v-2.1l2.3-.4V45h1.6l.7 1.8h-2.3v3.7c0 .5.1.8.3 1.1s.5.4 1 .4c.2 0 .3 0 .5-.1.2 0 .3-.1.5-.2l.5 1.7zM126.3 45.5c.4-.3.8-.5 1.3-.7.5-.2.9-.2 1.3-.2 1.2 0 2 .3 2.5 1s.7 1.5.7 2.6v5.5h-2.3v-5.4c0-.6-.1-1-.4-1.3s-.7-.4-1.2-.4c-.3 0-.7.1-1 .3-.4.2-.7.4-1 .6v6.2H124V41.1l2.3-.2v4.6zM211.2 46c-.4-.2-.8-.3-1.2-.4-.4-.1-.7-.2-1.2-.2-.3 0-.5.1-.7.2s-.2.3-.2.5c0 .1.1.3.3.4.2.1.5.3 1 .4.7.3 1.4.6 2 1.1.6.5.9 1.1.9 1.8 0 .9-.3 1.5-.9 2-.6.5-1.5.7-2.7.7-.4 0-.9-.1-1.5-.2s-1.1-.4-1.5-.7l.7-1.7c.4.2.8.3 1.2.4.4.1.7.2 1.1.2.4 0 .8-.1 1-.2s.3-.3.3-.5-.1-.5-.3-.6c-.2-.2-.6-.4-1.1-.5-.7-.2-1.4-.6-2-1s-.9-1-.9-1.7c0-.8.3-1.5.9-2 .6-.5 1.4-.7 2.5-.7.4 0 .9.1 1.4.2.6.2 1.1.4 1.5.7l-.6 1.8zM222.2 43.6v12.5l-2.4.2v-4.4c-.4.2-.8.4-1.2.5s-.8.2-1.2.2c-1.3 0-2.2-.4-2.9-1.3-.7-.9-1-2-1-3.3s.4-2.4 1.1-3.3c.7-.9 1.7-1.3 3-1.3.4 0 .9.1 1.5.3.5.2 1 .4 1.4.8l.5-.7h1.2zm-4.1 1.7c-.8 0-1.4.3-1.7.9-.3.6-.5 1.2-.5 1.8 0 .7.1 1.3.4 1.8s.9.8 1.7.8c.3 0 .6-.1.9-.2s.6-.3.9-.4v-4c-.3-.2-.5-.3-.9-.4s-.6-.3-.8-.3zM230.7 51.5c-.4.4-.9.7-1.5.9-.6.2-1.1.3-1.6.3-1.2 0-2-.4-2.5-1.1-.5-.7-.7-1.6-.7-2.5v-5.5h2.4V49c0 .6.1 1 .4 1.3s.6.4 1.2.4c.3 0 .6-.1 1-.2.3-.2.7-.3 1-.5v-6.3h2.3v8.7h-1.2l-.8-.9zM237.7 52.5c-1.1 0-1.9-.3-2.4-.8s-.8-1.2-.8-2c0-.9.3-1.6.9-2.1.6-.5 1.4-.7 2.4-.7h1.7c0-.4-.1-.8-.4-1-.2-.2-.6-.4-1-.4s-.9.1-1.3.2c-.5.1-.9.2-1.2.4l-.6-1.9c.3-.2.8-.4 1.5-.6.7-.1 1.2-.2 1.6-.2 1 0 1.9.3 2.7.9.7.6 1.1 1.4 1.1 2.3v5.7h-1.2l-.6-.7c-.3.3-.7.5-1.1.7-.4.2-.8.2-1.3.2zm-1.1-2.8c0 .3.1.5.3.7.2.2.5.3.8.3.3 0 .7-.1 1-.2.3-.1.6-.4.9-.6v-1.3h-1.8c-.4 0-.7.1-.9.4-.2.1-.3.4-.3.7zM248.9 43.6l.5 1.9c-.4 0-.9.1-1.4.3-.5.2-1 .6-1.5 1v5.5h-2.3v-8.7h1.2l.8 1.3c.4-.3.8-.6 1.3-.9.5-.3 1-.4 1.4-.4zM255.1 52.5c-1.5 0-2.7-.4-3.6-1.2-.9-.8-1.3-1.9-1.3-3.3s.4-2.5 1.2-3.3 1.9-1.3 3.2-1.3c1.4 0 2.4.5 3 1.4.6.9 1 2 1 3.2v.7h-5.9c.1.6.4 1 .8 1.4.4.3 1 .5 1.7.5.4 0 .8-.1 1.1-.2.3-.1.7-.2 1.1-.4l.7 1.7c-.4.3-.9.5-1.5.7-.7.1-1.1.1-1.5.1zm1.3-5.4c-.1-.6-.3-1-.6-1.3-.3-.3-.7-.4-1.2-.4s-.9.1-1.2.4c-.3.3-.5.7-.6 1.3h3.6zM317.9 41c.4 0 .7.1.9.4.3.3.4.6.4.9s-.1.7-.4.9c-.3.3-.6.4-.9.4-.4 0-.7-.1-.9-.4s-.4-.6-.4-.9.1-.7.4-.9.5-.4.9-.4zm1.2 3.9v8.7h-2.3v-8.7h2.3zM328.8 45.9c.4-.4.9-.8 1.5-1s1.2-.4 1.7-.4c1.2 0 2 .3 2.5 1s.7 1.5.7 2.6v5.5h-2.4v-5.4c0-.6-.1-1-.4-1.3s-.6-.4-1.2-.4c-.3 0-.7.1-1.1.3-.4.2-.7.4-1 .6v6.3H327v-5.4c0-.6-.1-1-.4-1.3s-.6-.4-1.1-.4c-.3 0-.6.1-.9.2-.3.1-.6.3-.9.5v6.4h-2.3V45h1.2l.6.8c.4-.4.9-.6 1.4-.8.6-.2 1.1-.3 1.5-.3.7 0 1.3.1 1.7.4s.8.4 1 .8zM340.3 53.8c-1.1 0-1.9-.3-2.4-.8s-.8-1.2-.8-2c0-.9.3-1.6.9-2.1.6-.5 1.4-.7 2.4-.7h1.7c0-.4-.1-.8-.4-1s-.6-.4-1-.4-.9.1-1.3.2c-.5.1-.9.2-1.2.4l-.6-1.9c.3-.2.8-.4 1.5-.6.7-.1 1.2-.2 1.6-.2 1 0 1.9.3 2.7.9.7.6 1.1 1.4 1.1 2.3v5.7h-1.2l-.6-.7c-.3.3-.7.5-1.1.7-.4.1-.9.2-1.3.2zm-1.1-2.8c0 .3.1.5.3.7.2.2.5.3.8.3.3 0 .7-.1 1-.2.3-.1.6-.4.9-.6v-1.3h-1.8c-.4 0-.7.1-.9.4-.2.1-.3.4-.3.7zM355 44.9v8.7c0 1.1-.4 1.9-1.1 2.7-.7.7-1.8 1.1-3.4 1.1-.4 0-.9-.1-1.6-.3-.7-.2-1.3-.4-1.8-.7l.7-1.7c.5.3 1 .5 1.4.6.4.1.8.2 1.2.2.7 0 1.2-.2 1.6-.5.4-.3.6-.8.6-1.4v-.5c-.4.2-.8.4-1.2.5-.4.1-.8.2-1.2.2-1.3 0-2.2-.4-2.9-1.3-.7-.9-1-2-1-3.3s.4-2.4 1.1-3.3c.7-.9 1.7-1.3 3-1.3.4 0 .9.1 1.5.3.5.2 1 .4 1.4.8l.5-.7h1.2zm-4.1 1.6c-.8 0-1.4.3-1.7.9-.3.6-.5 1.2-.5 1.8 0 .7.1 1.3.4 1.8.3.5.9.8 1.7.8.3 0 .6-.1.9-.2.3-.1.6-.3.9-.4v-4c-.3-.2-.5-.3-.9-.4-.2-.2-.5-.3-.8-.3zM361.9 53.8c-1.5 0-2.7-.4-3.6-1.2-.9-.8-1.3-1.9-1.3-3.3s.4-2.5 1.2-3.3 1.9-1.3 3.2-1.3c1.4 0 2.4.5 3 1.4.6.9 1 2 1 3.2v.7h-5.9c.1.6.4 1 .8 1.4s1 .5 1.7.5c.4 0 .8-.1 1.1-.2.3-.1.7-.2 1.1-.4l.7 1.7c-.4.3-.9.5-1.5.7s-1.2.1-1.5.1zm1.3-5.4c-.1-.6-.3-1-.6-1.3-.3-.3-.7-.4-1.2-.4s-.9.1-1.2.4c-.3.3-.5.7-.6 1.3h3.6zM372.3 47.2c-.4-.2-.8-.3-1.2-.4-.4-.1-.7-.2-1.2-.2-.3 0-.5.1-.7.2s-.2.3-.2.5c0 .1.1.3.3.4.2.1.5.3 1 .4.7.3 1.4.6 2 1.1.6.5.9 1.1.9 1.8 0 .9-.3 1.5-.9 2-.6.5-1.5.7-2.7.7-.4 0-.9-.1-1.5-.2s-1.1-.4-1.5-.7l.7-1.7c.4.2.8.3 1.2.4.4.1.7.2 1.1.2.4 0 .8-.1 1-.2.2-.1.3-.3.3-.5s-.1-.5-.3-.6c-.2-.2-.6-.4-1.1-.5-.7-.2-1.4-.6-2-1-.6-.4-.9-1-.9-1.7 0-.8.3-1.5.9-2 .6-.5 1.4-.7 2.5-.7.4 0 .9.1 1.4.2.6.2 1.1.4 1.5.7l-.6 1.8z"/><path fill="none" stroke="#D1D3D4" stroke-width="2" stroke-linejoin="round" stroke-miterlimit="10" d="M194.7 10.7h74.9v73.2h-74.9z"/><g fill="none" stroke="#D1D3D4" stroke-width="2" stroke-linecap="round" stroke-miterlimit="10"><path d="M183.1 10.7v73.2M187 10.7h-8.2M187 83.9h-8.2"/></g><g fill="none" stroke="#D1D3D4" stroke-width="2" stroke-linecap="round" stroke-miterlimit="10"><path d="M194.7 98.1v-8.2M269.6 98.1v-8.2M268.8 94h-73.2"/></g><text transform="translate(230.165 104.187)" fill="#D1D3D4" font-family="'PalanquinDark-Regular'" font-size="11.2">x</text><text transform="translate(171.894 52.333)" fill="#D1D3D4" font-family="'PalanquinDark-Regular'" font-size="11.2">x</text></g></svg>