<svg xmlns:dc="http://purl.org/dc/elements/1.1/" xmlns:cc="http://creativecommons.org/ns#" xmlns:rdf="http://www.w3.org/1999/02/22-rdf-syntax-ns#" xmlns:svg="http://www.w3.org/2000/svg" xmlns="http://www.w3.org/2000/svg" version="1.1" viewBox="0 0 100.00001 100" xml:space="preserve" x="0px" y="0px"><path d="m 22.75,5 c -0.55828,0.00352 -1.106953,0.2286137 -1.5,0.625 -0.393222,0.3962106 -0.634316,0.9731451 -0.625,1.53125 0.407285,24.421968 0.882969,49.513048 1.25,70.71875 0.01406,0.827929 0.547853,1.619864 1.3125,1.9375 0.764472,0.317637 1.71537,0.136074 2.3125,-0.4375 4.590523,-4.410171 9.521859,-9.148109 13.53125,-13 4.400855,9.130947 8.746624,18.279346 13.15625,27.40625 0.243633,0.504316 0.690001,0.908828 1.21875,1.09375 0.52875,0.184923 1.151407,0.149005 1.65625,-0.09375 5.851751,-2.812673 10.761,-5.159416 16.03125,-7.6875 0.506777,-0.242929 0.907949,-0.688594 1.09375,-1.21875 0.186152,-0.530155 0.149886,-1.15 -0.09375,-1.65625 C 67.701512,75.086396 63.296031,65.946085 58.90625,56.8125 65.102532,55.995293 71.303718,55.190975 77.5,54.375 c 0.820195,-0.108106 1.551855,-0.736368 1.78125,-1.53125 0.229218,-0.794882 -0.05047,-1.722305 -0.6875,-2.25 C 59.788708,35.01656 40.314732,18.893288 24.15625,5.5 23.770938,5.1807815 23.250273,4.9966602 22.75,5 z" transform="translate(0,-5e-6)" style="text-indent:0;text-transform:none;direction:ltr;block-progression:tb;baseline-shift:baseline;color:#000000;enable-background:accumulate;" fill="#000000" fill-opacity="1" fill-rule="nonzero" stroke="none" marker="none" visibility="visible" display="inline" overflow="visible"/><head/></svg>